<svg width="224" height="256" viewBox="0 0 224 256" fill="none" xmlns="http://www.w3.org/2000/svg">
<g clip-path="url(#clip0)">
<path d="M219.695 181.145C210.035 170.765 191.96 155.15 191.96 104C191.96 65.15 164.72 34.05 127.99 26.42V16C127.99 7.165 120.83 0 112 0C103.17 0 96.0099 7.165 96.0099 16V26.42C59.2799 34.05 32.0399 65.15 32.0399 104C32.0399 155.15 13.9649 170.765 4.30486 181.145C1.30486 184.37 -0.0251426 188.225 -0.000142587 192C0.0548574 200.2 6.48986 208 16.0499 208H207.95C217.51 208 223.95 200.2 224 192C224.025 188.225 222.695 184.365 219.695 181.145V181.145ZM33.7649 184C44.3749 170.015 55.9749 146.835 56.0299 104.29C56.0299 104.19 55.9999 104.1 55.9999 104C55.9999 73.07 81.0698 48 112 48C142.93 48 168 73.07 168 104C168 104.1 167.97 104.19 167.97 104.29C168.025 146.84 179.625 170.02 190.235 184H33.7649ZM112 256C129.66 256 143.985 241.675 143.985 224H80.0148C80.0148 241.675 94.3398 256 112 256Z" fill="#333333"/>
</g>
<defs>
<clipPath id="clip0">
<rect width="224" height="256" fill="white"/>
</clipPath>
</defs>
</svg>
